<svg width="80" height="80" viewBox="0 0 80 80" fill="none" xmlns="http://www.w3.org/2000/svg">
<g id="Group 73">
<circle id="Ellipse 6" cx="40" cy="40" r="40" fill="#E47E44"/>
<path id="Vector" d="M25 64C23.625 64 22.4479 63.5058 21.4688 62.5173C20.4896 61.5288 20 60.3405 20 58.9524V33.7143C20 32.3262 20.4896 31.1379 21.4688 30.1494C22.4479 29.1609 23.625 28.6667 25 28.6667H27.5V23.619C27.5 20.1278 28.7188 17.1518 31.1562 14.6911C33.5938 12.2304 36.5417 11 40 11C43.4583 11 46.4062 12.2304 48.8438 14.6911C51.2812 17.1518 52.5 20.1278 52.5 23.619V28.6667H55C56.375 28.6667 57.5521 29.1609 58.5312 30.1494C59.5104 31.1379 60 32.3262 60 33.7143V58.9524C60 60.3405 59.5104 61.5288 58.5312 62.5173C57.5521 63.5058 56.375 64 55 64H25ZM25 58.9524H55V33.7143H25V58.9524ZM40 51.381C41.375 51.381 42.5521 50.8867 43.5312 49.8982C44.5104 48.9097 45 47.7214 45 46.3333C45 44.9452 44.5104 43.7569 43.5312 42.7685C42.5521 41.78 41.375 41.2857 40 41.2857C38.625 41.2857 37.4479 41.78 36.4688 42.7685C35.4896 43.7569 35 44.9452 35 46.3333C35 47.7214 35.4896 48.9097 36.4688 49.8982C37.4479 50.8867 38.625 51.381 40 51.381ZM32.5 28.6667H47.5V23.619C47.5 21.5159 46.7708 19.7282 45.3125 18.256C43.8542 16.7837 42.0833 16.0476 40 16.0476C37.9167 16.0476 36.1458 16.7837 34.6875 18.256C33.2292 19.7282 32.5 21.5159 32.5 23.619V28.6667Z" fill="white"/>
</g>
</svg>
