<svg width="143" height="26" viewBox="0 0 143 26" fill="none" xmlns="http://www.w3.org/2000/svg">
<g id="logo-pc" clip-path="url(#clip0_225_12)">
<g id="&#227;&#130;&#176;&#227;&#131;&#171;&#227;&#131;&#188;&#227;&#131;&#151;_22">
<g id="&#227;&#130;&#176;&#227;&#131;&#171;&#227;&#131;&#188;&#227;&#131;&#151;_21">
<g id="&#227;&#130;&#176;&#227;&#131;&#171;&#227;&#131;&#188;&#227;&#131;&#151;_19">
<g id="&#227;&#130;&#176;&#227;&#131;&#171;&#227;&#131;&#188;&#227;&#131;&#151;_17">
<g id="&#227;&#130;&#176;&#227;&#131;&#171;&#227;&#131;&#188;&#227;&#131;&#151;_16">
<path id="&#227;&#131;&#145;&#227;&#130;&#185;_17" d="M9.49078 23.0245V21.3684C8.34449 22.7761 7.11632 23.1901 5.43782 23.1901C3.88213 23.1901 2.53114 22.6519 1.71236 21.8239C0.238559 20.292 -0.00708008 17.8493 -0.00708008 15.2825C-0.00708008 12.757 0.238559 10.2729 1.71236 8.74105C2.57208 7.87162 3.88213 7.37481 5.43782 7.37481C7.07538 7.37481 8.34448 7.78882 9.44984 9.11366V1.28882H12.5203V22.9831L9.49078 23.0245ZM6.2566 10.1487C3.47274 10.1487 3.06335 12.5086 3.06335 15.2825C3.06335 18.0563 3.47274 20.4162 6.2566 20.4162C9.04045 20.4162 9.40889 18.0149 9.40889 15.2825C9.40889 12.55 9.04045 10.1487 6.2566 10.1487Z" fill="black"/>
<path id="&#227;&#131;&#145;&#227;&#130;&#185;_18" d="M27.1764 23.0245V21.6169C26.071 22.7347 25.0066 23.1901 23.1234 23.1901C21.2402 23.1901 19.9711 22.7347 19.0295 21.7825C18.2517 20.9545 17.8423 19.7538 17.8423 18.4704C17.8423 15.8621 19.6027 13.999 23.1644 13.999H27.1764V12.8812C27.1764 10.8939 26.2348 9.98311 23.8194 9.98311C22.1818 9.98311 21.363 10.3971 20.4624 11.515L18.4564 9.61051C19.8892 7.91305 21.363 7.33344 23.9013 7.33344C28.118 7.33344 30.2059 9.15509 30.2059 12.6328V22.9831L27.1764 23.0245ZM27.1354 16.1933H23.6147C21.7315 16.1933 20.8308 16.9799 20.8308 18.429C20.8308 19.878 21.6906 20.6232 23.7375 20.6232C24.8429 20.6232 25.7026 20.499 26.5214 19.7538C27.0126 19.2984 27.1764 18.5532 27.1764 17.4767L27.1354 16.1933Z" fill="black"/>
<path id="&#227;&#131;&#145;&#227;&#130;&#185;_19" d="M42.6104 23.0245C39.7447 23.0245 37.6158 20.9544 37.6158 18.7187V9.94166H35.8555V7.5818H37.6158V3.15186H40.6863V7.5818H44.4527V9.94166H40.6863V18.5531C40.6863 19.671 42.0373 20.3334 43.1836 20.3334H44.4527V22.9831H42.6104V23.0245Z" fill="black"/>
<path id="&#227;&#131;&#145;&#227;&#130;&#185;_20" d="M58.6175 23.0245V21.6169C57.5122 22.7347 56.4478 23.1901 54.5646 23.1901C52.6814 23.1901 51.4123 22.7347 50.4707 21.7825C49.6928 20.9545 49.2834 19.7538 49.2834 18.4704C49.2834 15.8621 51.0438 13.999 54.6055 13.999H58.6175V12.8812C58.6175 10.8939 57.6759 9.98311 55.2605 9.98311C53.623 9.98311 52.8042 10.3971 51.9035 11.515L49.8975 9.61051C51.3304 7.91305 52.8042 7.33344 55.3424 7.33344C59.5591 7.33344 61.647 9.15509 61.647 12.6328V22.9831L58.6175 23.0245ZM58.5357 16.1933H55.0149C53.1317 16.1933 52.2311 16.9799 52.2311 18.429C52.2311 19.878 53.0908 20.6232 55.1377 20.6232C56.2431 20.6232 57.1028 20.499 57.9216 19.7538C58.4129 19.2984 58.5766 18.5532 58.5766 17.4767L58.5357 16.1933Z" fill="black"/>
<path id="&#227;&#131;&#145;&#227;&#130;&#185;_21" d="M113.762 23.0245L110.569 17.7665L107.335 23.0245H103.61L108.85 15.1168L103.855 7.58179H107.581L110.61 12.6327L113.599 7.58179H117.324L112.248 15.1582L117.447 23.0659H113.762V23.0245Z" fill="black"/>
</g>
</g>
<g id="&#227;&#130;&#176;&#227;&#131;&#171;&#227;&#131;&#188;&#227;&#131;&#151;_18">
<path id="&#227;&#131;&#145;&#227;&#130;&#185;_22" d="M67.9723 7.5582H71.0428V9.04865H71.0837C71.6978 8.05502 72.5575 7.3512 73.9904 7.3512C75.3004 7.3512 76.2011 8.13783 76.7333 8.92445C77.4702 8.05503 78.289 7.3512 79.9265 7.3512C81.4822 7.3512 83.2835 8.34483 83.2835 11.1187V22.9595H80.2131V12.2366C80.2131 11.1187 79.6809 10.4149 78.6984 10.4149C77.5521 10.4149 77.1427 11.1601 77.1427 12.5678V22.9595H74.0722V12.2366C74.0722 11.1187 73.54 10.4149 72.5575 10.4149C71.4112 10.4149 71.0018 11.1601 71.0018 12.5678V22.9595H67.9314L67.9723 7.5582Z" fill="black"/>
</g>
</g>
<g id="&#227;&#130;&#176;&#227;&#131;&#171;&#227;&#131;&#188;&#227;&#131;&#151;_20">
<path id="&#227;&#131;&#145;&#227;&#130;&#185;_23" d="M92.6536 1.22668V4.53879H95.9287V1.22668H92.6536Z" fill="black"/>
<path id="&#227;&#131;&#145;&#227;&#130;&#185;_24" d="M99.695 20.6439V23.0037H88.8462V20.6439H92.7354V9.96234H90.4019V7.60248H95.8468V20.6853H99.695V20.6439Z" fill="black"/>
</g>
</g>
<path id="&#233;&#149;&#183;&#230;&#150;&#185;&#229;&#189;&#162;_21" d="M143.034 0H126.945V26H143.034V0Z" fill="black"/>
</g>
</g>
<defs>
<clipPath id="clip0_225_12">
<rect width="143" height="26" fill="white"/>
</clipPath>
</defs>
</svg>
