<svg width="26" height="23" viewBox="0 0 26 23" fill="none" xmlns="http://www.w3.org/2000/svg">
<g id="visillity-off">
<path id="Vector" d="M17.8455 12.197L16.1318 10.5126C16.3091 9.60269 16.0432 8.75084 15.3341 7.95707C14.625 7.1633 13.7091 6.85354 12.5864 7.02778L10.8727 5.34343C11.2076 5.18855 11.5473 5.07239 11.892 4.99495C12.2367 4.91751 12.6061 4.87879 13 4.87879C14.4773 4.87879 15.733 5.38699 16.767 6.40341C17.8011 7.41982 18.3182 8.65404 18.3182 10.1061C18.3182 10.4933 18.2788 10.8563 18.2 11.1951C18.1212 11.5339 18.003 11.8678 17.8455 12.197ZM21.6273 15.8561L19.9136 14.2298C20.6621 13.6684 21.3269 13.0537 21.908 12.3857C22.489 11.7178 22.9864 10.9579 23.4 10.1061C22.4152 8.15067 21.0019 6.59701 19.1602 5.44508C17.3186 4.29314 15.2652 3.71717 13 3.71717C12.4288 3.71717 11.8674 3.75589 11.3159 3.83333C10.7644 3.91077 10.2227 4.02694 9.69091 4.18182L7.85909 2.38131C8.66667 2.05219 9.49394 1.80535 10.3409 1.64078C11.1879 1.47622 12.0742 1.39394 13 1.39394C15.9742 1.39394 18.6235 2.20223 20.9477 3.81881C23.272 5.4354 24.9561 7.53114 26 10.1061C25.547 11.2483 24.9511 12.3083 24.2125 13.286C23.4739 14.2637 22.6121 15.1204 21.6273 15.8561ZM22.2182 23L17.2545 18.1793C16.5652 18.3923 15.8708 18.552 15.1716 18.6585C14.4723 18.7649 13.7485 18.8182 13 18.8182C10.0258 18.8182 7.37651 18.0099 5.05227 16.3933C2.72803 14.7767 1.04394 12.681 0 10.1061C0.413636 9.07997 0.935606 8.12647 1.56591 7.24558C2.19621 6.36469 2.91515 5.57576 3.72273 4.87879L0.472727 1.62626L2.12727 0L23.8727 21.3737L22.2182 23ZM5.37727 6.50505C4.80606 7.00842 4.28409 7.56018 3.81136 8.16035C3.33864 8.76052 2.93485 9.40909 2.6 10.1061C3.58485 12.0614 4.99811 13.6151 6.83977 14.767C8.68144 15.919 10.7348 16.4949 13 16.4949C13.3939 16.4949 13.778 16.4707 14.1523 16.4223C14.5265 16.3739 14.9106 16.3207 15.3045 16.2626L14.2409 15.1591C14.0242 15.2172 13.8174 15.2607 13.6205 15.2898C13.4235 15.3188 13.2167 15.3333 13 15.3333C11.5227 15.3333 10.267 14.8251 9.23295 13.8087C8.19886 12.7923 7.68182 11.5581 7.68182 10.1061C7.68182 9.8931 7.69659 9.68981 7.72614 9.49621C7.75568 9.30261 7.8 9.09933 7.85909 8.88636L5.37727 6.50505Z" fill="black"/>
</g>
</svg>
